<svg width="50" height="50" viewBox="0 0 50 50" fill="none" xmlns="http://www.w3.org/2000/svg">
<path d="M25.0137 13.3311C31.4666 13.3311 36.6875 18.552 36.6875 24.9951C36.6875 31.4382 31.4666 36.669 25.0137 36.669C18.5608 36.669 13.3398 31.448 13.3398 25.0049C13.3398 18.5618 18.5608 13.3311 25.0137 13.3311Z" fill="#FAFBFA"/>
<path d="M25.0147 37.5C18.112 37.5 12.5 31.8977 12.5 25.0049C12.5 18.1023 18.112 12.5 25.0147 12.5C31.9173 12.5 37.5293 18.1023 37.5293 24.9951C37.5293 31.888 31.9173 37.5 25.0147 37.5ZM35.5641 26.7061C35.2024 26.5888 32.2595 25.7186 28.9059 26.2466C30.3041 30.0792 30.8711 33.2079 30.9787 33.8531C33.3838 32.2399 35.0948 29.6783 35.5641 26.7061ZM29.1895 34.8406C29.033 33.902 28.4073 30.6365 26.9114 26.7452C26.8919 26.755 26.8625 26.7648 26.843 26.7648C20.8105 28.8668 18.6498 33.0417 18.4542 33.4327C20.263 34.8406 22.5411 35.6815 25.0147 35.6815C26.491 35.6912 27.9087 35.3881 29.1895 34.8406ZM17.0757 32.1519C17.3201 31.7413 20.2532 26.8919 25.7675 25.1027C25.9044 25.0538 26.051 25.0147 26.1879 24.9756C25.9239 24.3694 25.6306 23.7632 25.3178 23.1668C19.9795 24.7605 14.7976 24.692 14.3283 24.6822C14.3283 24.7898 14.3185 24.8973 14.3185 25.0049C14.3283 27.7522 15.3647 30.2552 17.0757 32.1519ZM14.5532 22.8246C15.0323 22.8344 19.432 22.8539 24.4378 21.5242C22.6682 18.376 20.7519 15.7362 20.4781 15.3549C17.4765 16.7628 15.2474 19.5199 14.5532 22.8246ZM22.5117 14.6314C22.805 15.0225 24.7507 17.6623 26.5008 20.879C30.3041 19.4515 31.9075 17.3005 32.1031 17.0268C30.2161 15.3549 27.7327 14.3381 25.0147 14.3381C24.1543 14.3381 23.3135 14.4456 22.5117 14.6314ZM33.2861 18.2587C33.0612 18.5618 31.272 20.8594 27.3221 22.4726C27.5665 22.981 27.8109 23.4992 28.0358 24.0174C28.114 24.2032 28.1922 24.3889 28.2704 24.5649C31.8293 24.1152 35.3588 24.8387 35.7108 24.9071C35.6815 22.3944 34.782 20.0772 33.2861 18.2587Z" fill="#96CCDA"/>
</svg>
