<svg width="50" height="50" viewBox="0 0 50 50" fill="none" xmlns="http://www.w3.org/2000/svg">
<path d="M20.6075 25.152C20.6075 22.6388 22.6455 20.601 25.1602 20.601C27.6748 20.601 29.7139 22.6388 29.7139 25.152C29.7139 27.6651 27.6748 29.703 25.1602 29.703C22.6455 29.703 20.6075 27.6651 20.6075 25.152ZM18.1458 25.152C18.1458 29.0237 21.2861 32.1621 25.1602 32.1621C29.0342 32.1621 32.1745 29.0237 32.1745 25.152C32.1745 21.2803 29.0342 18.1419 25.1602 18.1419C21.2861 18.1419 18.1458 21.2803 18.1458 25.152ZM30.813 17.8639C30.8128 18.1879 30.9089 18.5047 31.0889 18.7742C31.2689 19.0436 31.5248 19.2537 31.8243 19.3778C32.1238 19.502 32.4533 19.5345 32.7713 19.4714C33.0893 19.4084 33.3815 19.2524 33.6108 19.0234C33.8402 18.7944 33.9964 18.5026 34.0598 18.1848C34.1232 17.867 34.0908 17.5376 33.9669 17.2382C33.8429 16.9388 33.6329 16.6829 33.3634 16.5028C33.0939 16.3227 32.7771 16.2264 32.4528 16.2263H32.4522C32.0176 16.2265 31.6009 16.3991 31.2935 16.7061C30.9862 17.0132 30.8133 17.4296 30.813 17.8639ZM19.6415 36.2644C18.3096 36.2038 17.5858 35.982 17.1047 35.7947C16.4669 35.5466 16.0119 35.2511 15.5335 34.7736C15.055 34.2961 14.7589 33.8417 14.5117 33.2044C14.3242 32.7238 14.1023 32.0001 14.0418 30.6691C13.9756 29.2301 13.9623 28.7978 13.9623 25.1521C13.9623 21.5064 13.9766 21.0753 14.0418 19.6351C14.1024 18.304 14.3259 17.5818 14.5117 17.0998C14.76 16.4624 15.0557 16.0077 15.5335 15.5295C16.0112 15.0514 16.4659 14.7554 17.1047 14.5084C17.5856 14.3209 18.3096 14.0992 19.6415 14.0387C21.0814 13.9725 21.5139 13.9593 25.1602 13.9593C28.8065 13.9593 29.2394 13.9736 30.6805 14.0387C32.0123 14.0993 32.735 14.3227 33.2173 14.5084C33.855 14.7554 34.3101 15.052 34.7885 15.5295C35.267 16.007 35.562 16.4624 35.8103 17.0998C35.9978 17.5804 36.2197 18.304 36.2802 19.6351C36.3464 21.0753 36.3597 21.5064 36.3597 25.1521C36.3597 28.7978 36.3464 29.2289 36.2802 30.6691C36.2196 32.0001 35.9966 32.7236 35.8103 33.2044C35.562 33.8417 35.2663 34.2965 34.7885 34.7736C34.3107 35.2506 33.855 35.5466 33.2173 35.7947C32.7364 35.9822 32.0123 36.2039 30.6805 36.2644C29.2406 36.3305 28.8081 36.3438 25.1602 36.3438C21.5122 36.3438 21.0809 36.3305 19.6415 36.2644ZM19.5284 11.5827C18.0741 11.6489 17.0805 11.8793 16.2126 12.2168C15.3139 12.5653 14.5531 13.0328 13.7928 13.7915C13.0326 14.5501 12.5659 15.3116 12.2172 16.2098C11.8795 17.0777 11.649 18.0702 11.5827 19.5235C11.5154 20.9792 11.5 21.4445 11.5 25.152C11.5 28.8594 11.5154 29.3248 11.5827 30.7804C11.649 32.2339 11.8795 33.2263 12.2172 34.0941C12.5659 34.9918 13.0327 35.7542 13.7928 36.5125C14.553 37.2708 15.3139 37.7377 16.2126 38.0872C17.0821 38.4247 18.0741 38.6551 19.5284 38.7213C20.9856 38.7875 21.4505 38.804 25.1602 38.804C28.8698 38.804 29.3355 38.7886 30.792 38.7213C32.2463 38.6551 33.2393 38.4247 34.1077 38.0872C35.0059 37.7377 35.7672 37.2711 36.5275 36.5125C37.2878 35.7539 37.7534 34.9918 38.1031 34.0941C38.4408 33.2263 38.6725 32.2338 38.7376 30.7804C38.8038 29.3237 38.8193 28.8594 38.8193 25.152C38.8193 21.4445 38.8038 20.9792 38.7376 19.5235C38.6714 18.0701 38.4408 17.0771 38.1031 16.2098C37.7534 15.3122 37.2866 14.5513 36.5275 13.7915C35.7684 13.0316 35.0059 12.5653 34.1088 12.2168C33.2393 11.8793 32.2462 11.6478 30.7931 11.5827C29.3366 11.5165 28.8709 11.5 25.1613 11.5C21.4516 11.5 20.9856 11.5154 19.5284 11.5827Z" fill="#FAFBFA"/>
</svg>
