<svg width="50" height="50" viewBox="0 0 50 50" fill="none" xmlns="http://www.w3.org/2000/svg">
<path fill-rule="evenodd" clip-rule="evenodd" d="M13.5191 11.5C12.4043 11.5 11.5 12.3768 11.5 13.457V36.864C11.5 37.9443 12.4045 38.8203 13.5191 38.8203H36.8012C37.9164 38.8203 38.8203 37.9442 38.8203 36.8636V13.457C38.8203 12.3768 37.9164 11.5 36.8012 11.5H13.5191ZM19.8022 22.0639V34.3636H15.7139V22.0639H19.8022ZM20.0716 18.2601C20.0716 19.4404 19.1843 20.3849 17.7589 20.3849L17.7321 20.3848C16.36 20.3848 15.473 19.4403 15.473 18.26C15.473 17.0528 16.3868 16.1347 17.786 16.1347C19.1843 16.1347 20.045 17.0528 20.0716 18.2601ZM26.153 34.3636H22.0651C22.0651 34.3636 22.1186 23.2182 22.0653 22.0643H26.1533V23.8053C26.6967 22.9674 27.6693 21.7755 29.8378 21.7755C32.5275 21.7755 34.5441 23.5335 34.5441 27.3113V34.3636H30.4562V27.7843C30.4562 26.1307 29.8643 25.0029 28.3853 25.0029C27.2557 25.0029 26.5831 25.7634 26.2877 26.4982C26.1797 26.7604 26.153 27.1285 26.153 27.4956V34.3636Z" fill="#FAFBFA"/>
</svg>
